<svg width="629" height="113" viewBox="0 0 629 113" fill="none" xmlns="http://www.w3.org/2000/svg">
<g clip-path="url(#clip0_681_1333)">
<rect width="629" height="113" fill="#F04E3E"/>
<path d="M235.997 19.9606C235.997 19.9606 204.279 25.0647 186.779 9.93473C169.28 -5.28634 174.839 -33.4499 174.839 -33.4499C174.839 -33.4499 201.909 -44.296 219.227 -28.0724C236.635 -11.9399 235.997 19.9606 235.997 19.9606Z" fill="#FFC20E"/>
<path d="M633.469 81.1476C604.555 75.4509 591.643 91.9913 580.349 108.082C561.75 134.597 544.7 120.635 528.06 111.14C509.81 100.716 493.93 127.241 518.855 141.283C543.781 155.325 563.109 138.814 581.159 116.267C599.238 93.6803 615.649 103.015 632.569 113.059C653.557 125.512 668.049 87.9437 633.469 81.1476Z" fill="#FFEDA9"/>
<path d="M244.614 108.181C255.893 119.064 266.432 115.395 276.118 111.461C292.074 104.975 295.668 116.13 300.367 125.171C305.516 135.091 320.261 127.816 313.171 114.355C306.081 100.893 292.683 102.698 278.116 107.57C263.525 112.45 258.883 103.547 254.217 94.1803C248.429 82.5641 231.121 95.1741 244.614 108.181Z" fill="#FFC20E"/>
<path d="M174 112.31C175.655 112.31 177.31 110.655 177.31 109C177.31 107.069 175.655 105.69 174 105.69C172.069 105.69 170.69 107.069 170.69 109C170.69 110.655 172.069 112.31 174 112.31ZM174 101C178.414 101 182 104.586 182 109C182 113.414 178.414 117 174 117C169.586 117 166 113.414 166 109C166 104.586 169.586 101 174 101Z" fill="#FFC20E"/>
<path d="M473.316 -21.3163C489.592 -14.1551 496.997 4.80587 489.917 21L431 -4.7153C438.08 -20.9908 457.041 -28.3962 473.316 -21.3163Z" fill="#FFC20E"/>
<path d="M355.452 142.684C324.373 144.368 324.951 123.343 352.642 90.6844C377.02 61.9321 392.425 93.4893 393.745 108.087C400.859 78.2488 416.733 74.1983 443.084 103.215C471.009 133.96 443.298 144.437 432.442 144.039C462.464 151.696 456.765 177.514 434.136 193.676C411.501 209.839 403.41 202.286 394.114 181.106C393.366 202.211 371.375 212.684 342.877 183.852C319.605 160.301 349.707 144.592 355.452 142.684Z" fill="white"/>
<path d="M304.3 -39.6462C291.717 -56.9971 304.096 -64.5158 333.333 -60.694C359.072 -57.3301 346.57 -36.631 338.617 -30.4147C358.537 -37.4437 366.809 -29.7735 359.865 -3.69098C352.508 23.9481 336.097 11.83 332.272 5.40059C339.056 25.6297 321.991 31.9755 304.188 24.9207C286.384 17.8631 287.731 10.3611 296.512 -2.92805C284.023 4.52237 269.75 -4.28861 275.786 -31.5445C280.719 -53.8044 301.05 -42.2568 304.3 -39.6462Z" fill="#FFEDA9"/>
</g>
<defs>
<clipPath id="clip0_681_1333">
<rect width="629" height="113" fill="white"/>
</clipPath>
</defs>
</svg>
