<svg width="38" height="34" viewBox="0 0 38 34" fill="none" xmlns="http://www.w3.org/2000/svg">
<path d="M12.5497 17.4877L13.2467 22.8144H17.6387V17.4877H12.5497ZM13.6021 25.5378L14.2991 30.8645H17.6387V25.5378H13.6021ZM11.5619 30.8645L10.8649 25.5378H7.13758L8.40465 30.8645H11.5619ZM10.5095 22.8144L9.81249 17.4877H5.2266L6.49136 22.8144H10.5095ZM28.1884 17.4877L27.4914 22.8144H31.8534L33.1181 17.4877H28.1884ZM27.1336 25.5378L26.4366 30.8645H29.9401L31.2048 25.5378H27.1336ZM23.7017 30.8645L24.3987 25.5378H20.3621V30.8645H23.7017ZM24.7541 22.8144L25.4511 17.4877H20.3621V22.8144H24.7541ZM11.3334 0.997381C11.6889 0.337308 12.5105 0.0903581 13.1729 0.445782C13.8329 0.801206 14.0799 1.62283 13.7245 2.28522L9.25628 10.5961H28.7423L24.2764 2.28522C23.921 1.62283 24.1679 0.801206 24.828 0.445782C25.4881 0.0903581 26.312 0.337308 26.6674 0.997381L31.828 10.5961H34.9645C35.6153 10.5961 36.2085 10.8639 36.6378 11.2931L36.6424 11.3001C37.074 11.7293 37.3394 12.3225 37.3394 12.9733V15.1128C37.3394 15.7636 37.074 16.3568 36.6424 16.786L36.6378 16.7907C36.4439 16.9845 36.2177 17.1438 35.9684 17.2638L34.2606 24.4484C34.256 24.4761 34.249 24.5061 34.2398 24.5338L32.3496 32.4962C32.2227 33.1171 31.6734 33.5856 31.0156 33.5856H7.32914C6.71292 33.5856 6.1544 33.1655 6.00669 32.5378L4.10494 24.5361C4.09571 24.5061 4.08879 24.4761 4.08186 24.4461L2.4086 17.4023C2.00933 17.2915 1.64929 17.0768 1.3631 16.7907L1.35618 16.786C0.926901 16.3568 0.65918 15.7636 0.65918 15.1128V12.9733C0.65918 12.3225 0.926901 11.7293 1.35618 11.2977L1.3631 11.2931C1.79238 10.8639 2.38552 10.5961 3.03636 10.5961H6.17286L11.3334 0.997381ZM34.6183 13.3195H3.38256V14.7666H34.6183V13.3195Z" fill="#FEFEFE"/>
</svg>
