<svg width="34" height="35" viewBox="0 0 34 35" fill="none" xmlns="http://www.w3.org/2000/svg">
<path fill-rule="evenodd" clip-rule="evenodd" d="M11.507 12.0413C11.507 14.0083 11.912 14.6061 12.3169 16.2259C11.4492 16.9394 3.23428 25.3085 1.76872 26.7548C0.187451 28.3361 0.495991 27.5454 0.495991 30.6501C0.495991 34.3333 1.80729 34.0441 5.18194 34.0441C5.97257 34.0441 5.91472 33.0413 6.87891 33.022C7.59241 33.022 7.41886 33.157 7.88166 32.6749C8.74943 31.7879 8.47946 32.0578 8.51803 30.0523L10.1764 30.0331C10.7935 30.0331 11.4106 29.146 11.4299 29.0881C11.6806 28.6253 11.4877 27.6419 11.5263 27.0441C13.8789 26.9862 14.8045 27.3912 15.9616 25.7328C16.5594 24.8843 16.5208 24.2479 16.5401 23.0138C17.0607 23.0138 18.3913 23.0909 18.6613 22.8981C19.1241 22.5895 18.8348 22.3581 19.6255 22.5895C22.1131 23.3416 24.62 23.0909 26.799 22.146C30.8679 20.5069 33.7412 16.5344 33.7412 11.887C33.7412 5.7741 28.8045 0.837463 22.6916 0.837463C19.8954 0.837463 17.35 1.8595 15.4023 3.57575C13.0304 5.58126 11.507 8.58953 11.507 12.0413ZM2.11583 30.6308L16.0194 16.708L16.9643 17.6529L3.04145 31.5565L2.11583 30.6308ZM26.5483 4.96418C28.2067 4.96418 29.5373 6.31405 29.5373 7.97245C29.5373 9.63085 28.2067 10.9807 26.5483 10.9807C24.8706 10.9807 23.5401 9.63085 23.5401 7.97245C23.5401 6.31405 24.8706 4.96418 26.5483 4.96418Z" fill="#FEFEFE"/>
</svg>
