<svg width="35" height="35" viewBox="0 0 35 35" fill="none" xmlns="http://www.w3.org/2000/svg">
<g clip-path="url(#clip0_96_366)">
<path fill-rule="evenodd" clip-rule="evenodd" d="M12.1374 0H22.8624C32.6605 0 34.9997 2.33922 34.9997 12.1375V22.8625C34.9997 32.6608 32.6605 35 22.8624 35H12.1374C2.3392 35 0 32.6608 0 22.8625V12.1375C0 2.33922 2.3392 0 12.1374 0ZM28.6442 12.0492C28.8207 11.5195 28.6442 11.1223 27.8938 11.1223H25.334C24.6719 11.1223 24.363 11.4754 24.2306 11.8285C24.2306 11.8285 22.9065 15.0063 21.0969 17.0366C20.479 17.6545 20.2142 17.831 19.9053 17.831C19.7287 17.831 19.508 17.6545 19.508 17.1248V12.0492C19.508 11.3871 19.2874 11.1223 18.7577 11.1223H14.7414C14.3441 11.1223 14.1235 11.4313 14.1235 11.6961C14.1235 12.314 15.0503 12.4464 15.1386 14.1677V17.9193C15.1386 18.7579 14.962 18.9344 14.6531 18.9344C13.7704 18.9344 11.696 15.7566 10.4161 12.0933C10.1954 11.3871 9.93056 11.1223 9.31266 11.1223H6.75278C6.00247 11.1223 5.87007 11.4754 5.87007 11.8285C5.87007 12.4905 6.75278 15.8449 9.88643 20.3026C12.0049 23.3039 14.962 24.9369 17.6543 24.9369C19.2874 24.9369 19.508 24.5839 19.508 23.9659V21.6709C19.508 20.9647 19.6404 20.7881 20.1701 20.7881C20.5232 20.7881 21.1852 21.0088 22.6858 22.4653C24.4513 24.1866 24.7161 24.9369 25.6871 24.9369H28.2469C28.9531 24.9369 29.3503 24.5839 29.1297 23.8777C28.909 23.1715 28.0704 22.1122 26.967 20.8764C26.3932 20.1702 25.4664 19.4199 25.2016 19.0668C24.8485 18.5813 24.9367 18.3607 25.2016 17.9193C25.2016 17.9193 28.3352 13.5498 28.6442 12.0492Z" fill="white"/>
</g>
<defs>
<clipPath id="clip0_96_366">
<rect width="35" height="35" fill="white"/>
</clipPath>
</defs>
</svg>
