<svg width="40" height="40" viewBox="0 0 40 40" fill="none" xmlns="http://www.w3.org/2000/svg">
<path d="M20 40C31.0457 40 40 31.0457 40 20C40 8.9543 31.0457 0 20 0C8.9543 0 0 8.9543 0 20C0 31.0457 8.9543 40 20 40Z" fill="#00350E"/>
<path fill-rule="evenodd" clip-rule="evenodd" d="M37.6723 29.3389C34.5456 35.248 28.5539 39.394 21.5566 39.9312C21.5566 39.8623 21.5704 39.7934 21.5704 39.7245C22.328 33.9945 26.4878 30.427 30.8266 35.1791C29.6971 33.2369 28.912 27.135 37.2729 29.2424C37.4106 29.27 37.5484 29.3113 37.6723 29.3389Z" fill="#2B8BCB"/>
<path fill-rule="evenodd" clip-rule="evenodd" d="M3.16797 9.18734C4.2699 7.46558 5.64731 5.92288 7.20378 4.62811C10.1101 5.48211 12.8374 5.57853 14.9448 1.48762C15.1239 1.15704 15.2892 0.840234 15.4682 0.509656C16.0743 0.371915 16.6941 0.261722 17.314 0.179077C16.6253 0.785138 15.9917 1.68045 15.4131 2.98899C13.898 6.44629 12.0936 10.0413 6.44621 10.0551C4.99992 10.0551 3.92554 9.72453 3.16797 9.18734Z" fill="#FFC20E"/>
</svg>
