<svg width="135" height="122" viewBox="0 0 135 122" fill="none" xmlns="http://www.w3.org/2000/svg">
<g clip-path="url(#clip0_69_293)">
<path fill-rule="evenodd" clip-rule="evenodd" d="M65.4429 1.26877C54.3488 10.3434 -3.98917 116.505 0.249052 121.602C4.48728 126.574 124.529 89.778 133.255 81.4492C146.343 69.0181 80.526 -11.038 65.4429 1.26877Z" fill="#FEFEFE"/>
<path d="M49.2379 74.4877L60.0827 70.8827L59.9581 73.6175L55.5952 81.2005L59.8334 76.601L59.5841 83.4381L48.7393 87.0431L48.8639 84.5569L53.2268 76.4767L48.9886 80.4546L49.2379 74.4877Z" fill="#00350E"/>
<path d="M61.4537 70.3855L76.9108 65.2888L76.7861 69.2667L70.5534 78.8386L76.6614 73.4933L76.4121 82.0707L60.9551 87.2917L61.0797 83.0652L67.1878 73.7419L61.2044 78.59L61.4537 70.3855Z" fill="#00350E"/>
<path d="M84.2648 71.6286L85.1374 66.4075L86.0099 71.1313L84.2648 71.6286ZM83.0183 63.1755L77.2842 81.8221L82.8936 79.9574L83.5169 75.7308L86.6332 74.7364L87.2565 78.4657L92.8659 76.601L87.1318 61.808L83.0183 63.1755Z" fill="#E8473B"/>
<path d="M42.6307 93.2586L46.869 91.8912L47.4922 75.1093L41.8828 76.8496L42.6307 93.2586Z" fill="#E8473B"/>
<path d="M90.623 64.6672L94.238 63.4241L93.9887 76.2281L99.5981 74.4877L99.0995 61.808L102.714 60.6892V56.7113L90.623 60.6892V64.6672Z" fill="#E8473B"/>
<path d="M109.944 66.6562C108.573 67.1534 107.575 66.0346 107.575 63.2998C107.575 60.5649 108.323 59.1975 109.944 58.576C111.564 57.8301 112.437 59.1975 112.437 61.6837C112.437 64.2943 111.315 66.1589 109.944 66.6562ZM109.944 54.2251C106.828 55.3439 103.088 58.0787 103.088 64.9158C103.088 70.0125 106.703 72.0015 109.944 71.007C113.185 69.8882 117.049 67.1534 117.049 60.192C117.049 54.2251 113.185 53.1063 109.944 54.2251Z" fill="#E8473B"/>
<path d="M34.5284 88.1619L34.6531 83.9353C35.6503 83.5624 37.5201 83.0652 37.5201 84.8055C37.5201 86.4215 35.401 87.6647 34.5284 88.1619ZM34.4038 79.4601L29.293 81.0762L30.0409 97.4852L34.2791 96.1178L34.4038 92.1398C35.6503 91.7669 41.509 89.9022 41.3844 83.1895C41.2597 78.59 37.2708 78.59 34.4038 79.4601Z" fill="#E8473B"/>
<path d="M54.7227 47.388L52.9775 46.7664L54.0994 50.7444L54.7227 47.388Z" fill="#00350E"/>
<path d="M50.4845 47.0151L49.1133 48.7554L53.1022 50.8687L50.4845 47.0151Z" fill="#00350E"/>
<path d="M70.1796 43.0371C69.307 42.4156 68.4344 42.2913 67.6865 42.4156C66.1907 42.9128 65.5674 44.6532 65.5674 44.7775L66.5646 45.1504C66.5646 45.0261 67.0632 43.783 68.0605 43.4101C68.5591 43.2857 69.1823 43.5344 69.9303 44.1559L70.3042 44.4045L70.6782 44.0316C70.6782 44.0316 71.3015 43.2857 71.5508 42.5399L70.5535 42.2913C70.4289 42.5399 70.3042 42.7885 70.1796 43.0371Z" fill="#00350E"/>
<path d="M64.3207 40.6752L63.6974 38.6862L62.7002 39.0592L63.3235 40.9238L64.3207 40.6752Z" fill="#00350E"/>
<path d="M53.6005 69.2667L44.6254 63.9213C44.6254 63.0511 44.3761 60.6892 44.3761 59.6947C44.3761 58.5759 44.9994 57.4571 46.7446 55.8411C47.2432 55.2195 47.7418 54.7223 48.1157 54.4737C47.9911 54.598 47.8664 54.7223 47.8664 54.8466C46.2459 57.5814 45.6227 59.0732 45.6227 62.3053H46.7446C46.7446 59.3218 47.2432 57.9544 48.739 55.4682C49.8609 53.4792 50.3595 53.3549 50.4842 53.3549C50.3595 53.6035 50.1102 54.1007 49.8609 54.7223L49.4869 55.3439C48.4897 57.7058 47.7418 59.4461 47.7418 62.3053H48.739C48.739 59.5704 49.4869 58.0787 50.4842 55.7168L50.7335 55.0952C51.1074 54.2251 51.4814 53.6035 51.6061 53.4792C51.6061 53.7278 51.7307 54.2251 51.1074 55.9654C50.4842 58.0787 50.2349 59.9433 50.2349 62.3053H51.2321C51.2321 60.6892 51.3567 59.3218 51.7307 57.8301C51.8554 58.7002 52.1047 59.6947 52.1047 60.4406C52.354 62.1809 52.4786 62.9268 53.1019 63.1754C53.2266 63.1754 53.3512 63.1754 53.4759 63.2997C54.847 63.5484 56.2182 63.9213 56.2182 65.413C56.2182 66.7804 54.4731 68.3965 53.6005 69.2667ZM53.7252 62.1809C53.6005 62.1809 53.6005 62.1809 53.4759 62.1809C53.3512 61.808 53.2266 61.0621 53.2266 60.3163C52.9772 58.8246 52.7279 57.0842 52.2293 56.214C52.8526 53.9764 52.7279 53.2306 52.4786 52.8576C52.354 52.609 52.1047 52.4847 51.7307 52.4847C51.6061 52.4847 51.3567 52.4847 51.2321 52.4847C50.9828 52.3604 50.7335 52.2361 50.3595 52.2361C49.9856 52.2361 49.6116 52.4847 49.2376 52.9819C48.2404 52.7333 47.2432 53.7278 45.872 55.0952C44.1268 56.9599 43.3789 58.3273 43.3789 59.6947C43.3789 60.9378 43.6282 64.1699 43.6282 64.2942V64.5428L53.6005 70.5098L53.8498 70.2611C53.9745 70.1368 57.2155 67.7749 57.2155 65.413C57.2155 62.9268 54.847 62.4296 53.7252 62.1809Z" fill="#00350E"/>
<path d="M69.3071 51.9875C68.0605 51.8631 66.814 51.3659 65.5675 51.4902C65.6921 51.3659 65.8168 51.1173 65.9414 50.993C66.9387 49.8742 66.9387 49.1283 66.6893 48.6311C66.5647 48.1338 66.1907 47.8852 65.6921 47.7609C65.1935 47.6366 64.5702 47.8852 64.3209 48.3824L65.0688 49.004C65.1935 48.8797 65.4428 48.7554 65.5675 48.7554C65.5675 48.8797 65.6921 48.8797 65.6921 49.004C65.8168 49.2526 65.6921 49.6255 65.1935 50.3714C64.1963 51.6145 62.7004 51.7388 61.8278 51.1173C60.9553 50.62 60.8306 49.5012 61.3292 48.1338C62.8251 44.5288 63.199 43.1614 62.8251 41.9183C62.5758 40.7995 61.7032 40.0536 60.5813 40.1779C59.5841 40.1779 58.4622 40.9238 58.3375 42.1669L59.4594 42.2912C59.4594 41.5454 60.0827 41.2967 60.5813 41.1724C60.8306 41.1724 61.5785 41.1724 61.8278 42.1669C61.9525 42.5398 61.9525 43.1614 61.7032 43.7829C61.4539 43.5343 60.9553 43.41 60.5813 43.41C59.8334 43.41 59.2101 43.6586 58.8362 44.2802H58.2129C58.2129 44.7774 58.4622 45.2747 59.0855 45.399L59.5841 45.5233L59.7087 45.0261C59.8334 44.6531 60.0827 44.4045 60.4567 44.4045C60.9553 44.4045 61.3292 44.7774 61.4539 45.0261C61.2046 45.7719 60.8306 46.6421 60.332 47.7609C59.5841 49.8742 60.2074 51.2416 61.2046 51.9875C60.4567 52.1118 59.8334 52.4847 59.5841 52.609C58.8362 52.7333 58.4622 52.609 58.3375 52.3604C58.2129 52.609 58.0882 53.7278 58.9608 54.1007C59.7087 54.3494 60.4567 54.1007 61.3292 54.1007C61.2046 55.8411 62.2018 56.7113 63.199 56.9599C63.4483 56.9599 63.6977 56.9599 63.947 56.9599C64.9442 56.9599 65.9414 56.4626 66.3154 55.5925L65.3182 55.2195C65.0688 55.8411 64.0716 56.0897 63.4483 55.9654C62.7004 55.7168 62.3265 55.0952 62.3265 54.3494C62.7004 54.3494 62.9497 54.598 63.3237 54.8466C64.9442 52.3604 70.5536 55.9654 71.3015 51.3659C71.0522 51.6145 70.429 52.2361 69.3071 51.9875Z" fill="#00350E"/>
<path d="M67.8114 39.0592C69.4319 38.6862 70.4291 39.9293 70.4291 39.9293L71.3017 39.3078C71.177 39.1835 69.8058 37.4431 67.5621 38.0647C65.6923 38.5619 65.069 40.3023 64.9443 41.1724H66.0662C66.0662 41.0481 66.1909 39.5564 67.8114 39.0592Z" fill="#00350E"/>
<path d="M77.6585 51.7389C76.9106 56.9599 72.5477 60.8135 68.6835 62.5539C65.9411 63.6727 63.5727 63.797 62.2015 62.8025C61.4536 62.3053 61.0796 61.4351 61.0796 60.6892C61.2043 60.0677 61.4536 59.5704 61.9522 59.3218L61.5782 58.3273C60.9549 58.576 60.4563 59.1975 60.207 59.8191C59.3345 58.203 58.2126 56.0897 57.8386 54.9709C56.8414 52.2361 57.34 49.004 57.8386 45.8963C57.9633 45.5233 57.9633 45.0261 58.0879 44.6532C58.2126 43.783 58.0879 42.5399 58.0879 41.0481C57.9633 39.4321 57.9633 37.6918 58.0879 36.3243C58.2126 36.3243 58.2126 36.2 58.2126 36.2C58.7112 32.9679 60.3317 34.584 62.9494 34.2111C65.4425 33.8381 68.4342 31.1033 72.9217 34.0867C71.7998 39.9293 75.2901 39.3078 75.9134 41.9183C76.6613 45.2747 72.7971 47.5123 74.0436 49.7499L77.2846 48.2582C75.7887 47.0151 76.038 43.0371 78.7804 43.1614C81.6475 43.41 82.2707 49.6256 77.6585 51.7389ZM83.7666 55.5925C83.1433 55.4682 82.894 55.2196 83.1433 54.9709C83.268 54.7223 84.5145 54.7223 84.5145 53.7278C84.5145 52.7333 82.6447 53.3549 82.2707 50.2471C81.8968 47.0151 82.6447 44.9018 83.5173 41.5454C85.0131 35.4542 80.5256 27.374 72.1738 26.6281C64.6946 26.0065 56.2181 29.3629 56.966 39.3078C56.966 39.9293 56.966 40.5509 57.0907 41.0481C57.0907 42.4156 57.0907 43.783 56.966 44.5288C56.966 44.9018 56.8414 45.2747 56.8414 45.7719C56.3428 49.004 55.8441 52.2361 56.8414 55.3439C57.5893 57.2085 60.207 61.9323 60.3317 62.181C60.581 62.6782 60.9549 63.2998 61.5782 63.6727C62.3261 64.1699 63.448 64.5429 64.6946 64.5429C65.9411 64.5429 67.4369 64.1699 69.0574 63.4241C71.5505 62.4296 74.4176 60.4406 76.412 57.4572C77.6585 59.0732 80.6502 59.6947 82.894 59.1975C84.2652 58.8246 84.6392 57.3328 83.268 56.9599C84.5145 56.587 84.5145 55.7168 83.7666 55.5925Z" fill="#00350E"/>
<path d="M63.8218 89.0321L62.9492 89.405L62.8245 92.0156L61.8273 92.3885V89.6537L60.8301 90.0266L60.9547 89.0321L63.8218 88.1619V89.0321Z" fill="#00350E"/>
<path d="M65.8167 89.6536L65.4427 88.7834L65.1934 89.7779L65.8167 89.6536ZM66.066 90.3995L64.8194 90.7724L64.5701 91.394L63.4482 91.7669L64.9441 87.7889L66.066 87.416L67.4372 90.5238L66.3153 90.8967L66.066 90.3995Z" fill="#00350E"/>
<path d="M69.0571 89.9022C68.6832 89.7779 68.5585 89.6536 68.3092 89.405C68.1846 89.1564 68.1846 88.9077 68.1846 88.5348C68.1846 88.1619 68.1846 87.7889 68.4339 87.5403C68.5585 87.1674 68.8078 86.9188 69.0571 86.6701C69.3065 86.4215 69.6804 86.1729 69.9297 86.0486C70.3037 86.0486 70.553 85.9243 70.8023 86.0486C71.0516 86.0486 71.3009 86.1729 71.4256 86.4215L70.6776 87.2917C70.553 87.0431 70.3037 86.9188 70.0544 87.0431C69.8051 87.1674 69.5558 87.2917 69.4311 87.5403C69.3065 87.6646 69.3065 87.9133 69.1818 88.1619C69.1818 88.4105 69.3065 88.6591 69.4311 88.7834C69.5558 88.9077 69.8051 88.9077 70.0544 88.9077C70.3037 88.7834 70.553 88.5348 70.6776 88.1619L71.4256 88.6591C71.1763 88.9077 71.0516 89.1564 70.8023 89.405C70.553 89.5293 70.3037 89.7779 69.9297 89.7779C69.5558 89.9022 69.3065 90.0265 69.0571 89.9022Z" fill="#00350E"/>
<path d="M73.6695 87.0431L73.2956 86.2972L73.0463 87.2917L73.6695 87.0431ZM73.9189 87.9133L72.6723 88.2862L72.423 88.9078L71.4258 89.2807L72.797 85.3027L73.9189 84.9298L75.29 88.0376L74.1682 88.4105L73.9189 87.9133Z" fill="#00350E"/>
<path d="M78.4061 87.0431V85.427L77.6582 86.9188L77.1596 87.1674L76.5363 86.0486V87.6646L75.5391 88.0376V84.4326L76.4116 84.1839L77.4089 85.6757L78.5308 83.4381L79.4033 83.1895V86.7945L78.4061 87.0431Z" fill="#00350E"/>
<path d="M81.8971 84.4326L81.5231 83.6868L81.2738 84.6812L81.8971 84.4326ZM82.1464 85.3028L80.8999 85.6757L80.7752 86.2973L79.6533 86.6702L81.0245 82.6923L82.1464 82.3193L83.5176 85.4271L82.3957 85.8L82.1464 85.3028Z" fill="#00350E"/>
<path d="M84.7635 82.8165C84.7635 83.1895 84.8881 83.3138 85.1374 83.1895L85.6361 83.0652V82.195L85.1374 82.3193C84.8881 82.3193 84.7635 82.5679 84.7635 82.8165ZM86.6333 80.8276V84.4326L85.6361 84.8055V83.9353L85.2621 84.0597L84.7635 85.0541L83.6416 85.4271L84.2649 84.184C84.1402 84.184 83.8909 84.0597 83.7663 83.811C83.7663 83.6867 83.6416 83.4381 83.6416 83.1895C83.6416 82.9409 83.7663 82.6922 83.8909 82.4436C84.0156 82.195 84.1402 81.9464 84.3895 81.8221C84.6388 81.5734 84.8881 81.4491 85.1374 81.3248L86.6333 80.8276Z" fill="#00350E"/>
<path d="M62.8252 94.8747C62.9499 94.7504 62.9499 94.6261 62.9499 94.5018C62.9499 94.3774 62.9499 94.2531 62.8252 94.2531C62.8252 94.1288 62.7006 94.1288 62.5759 94.2531L62.202 94.3774L62.0773 95.1233L62.5759 94.999C62.7006 94.999 62.8252 94.999 62.8252 94.8747ZM63.4485 93.1343C63.5732 93.2586 63.8225 93.383 63.9471 93.5073C64.0718 93.6316 64.0718 93.8802 64.0718 94.1288C64.0718 94.3774 64.0718 94.6261 63.9471 94.8747C63.8225 95.1233 63.5732 95.3719 63.3238 95.4962C63.1992 95.7449 62.9499 95.8692 62.5759 95.9935L62.0773 96.1178V96.988L61.0801 97.3609V93.7559L62.5759 93.2586C62.9499 93.1343 63.1992 93.1343 63.4485 93.1343Z" fill="#00350E"/>
<path d="M64.3203 92.7614L65.4422 92.3884V94.2531L66.5641 92.0155L67.5613 91.6426V95.2476L66.4394 95.6205V93.7559L65.3175 95.9935L64.3203 96.2421V92.7614Z" fill="#00350E"/>
<path d="M70.9276 94.1288V92.5128L70.3043 94.1288L69.8057 94.2532L69.0578 93.2587V94.7504L68.0605 95.1233V91.5183L69.0578 91.2697L70.055 92.7614L71.0522 90.6481L71.9248 90.2752V93.8802L70.9276 94.1288Z" fill="#00350E"/>
<path d="M73.1714 93.383C72.9221 93.2587 72.6728 93.1344 72.5481 92.8857C72.4235 92.6371 72.2988 92.3885 72.2988 92.0156C72.2988 91.6426 72.4235 91.2697 72.5481 90.8968C72.6728 90.6481 72.9221 90.2752 73.1714 90.0266C73.4207 89.778 73.7947 89.6537 74.1686 89.5293C74.4179 89.405 74.6672 89.405 74.9166 89.405C75.1659 89.5293 75.4152 89.6537 75.5398 89.778L74.9166 90.6481C74.6672 90.5238 74.4179 90.3995 74.1686 90.5238C73.9193 90.5238 73.7947 90.6481 73.5454 90.8968C73.4207 91.1454 73.4207 91.394 73.4207 91.6426C73.4207 91.8912 73.4207 92.1399 73.5454 92.2642C73.67 92.3885 73.9193 92.3885 74.1686 92.2642C74.4179 92.1399 74.6672 92.0156 74.7919 91.6426L75.5398 92.1399C75.4152 92.3885 75.1659 92.6371 74.9166 92.7614C74.6672 93.01 74.4179 93.1344 74.044 93.2587C73.7947 93.383 73.4207 93.383 73.1714 93.383Z" fill="#00350E"/>
<path d="M78.0328 90.1509L79.0301 91.6426L77.7835 92.0155L77.1603 90.8967L76.9109 91.0211L76.7863 92.2642L75.7891 92.6371V89.0321L76.9109 88.7835V90.0266H77.1603L77.9082 88.4105L79.0301 88.0376L78.0328 90.1509Z" fill="#00350E"/>
<path d="M81.3981 89.405L81.0241 88.5349L80.7748 89.6537L81.3981 89.405ZM81.6474 90.1509L80.4008 90.5238L80.1515 91.2697L79.1543 91.6426L80.5255 87.5404L81.6474 87.2917L83.0186 90.3995L81.8967 90.7724L81.6474 90.1509Z" fill="#00350E"/>
<path d="M84.2654 87.789C84.2654 88.0376 84.3901 88.1619 84.6394 88.0376L85.138 87.9133V87.0431L84.6394 87.1674C84.3901 87.2917 84.2654 87.416 84.2654 87.789ZM86.1352 85.8V89.405L85.0134 89.6536L85.138 88.9078H84.7641L84.2654 89.9022L83.1436 90.2752L83.7668 89.0321C83.6422 89.0321 83.3929 88.9078 83.2682 88.7834C83.1436 88.6591 83.1436 88.4105 83.1436 88.1619C83.1436 87.789 83.2682 87.5403 83.3929 87.2917C83.5175 87.0431 83.6422 86.9188 83.8915 86.6702C84.1408 86.5459 84.3901 86.4215 84.6394 86.2972L86.1352 85.8Z" fill="#00350E"/>
<path d="M91.9939 83.9354L91.8693 87.5404L90.872 87.9133V85.1785L89.8748 85.5514V88.1619L88.7529 88.5349V84.9298L91.9939 83.9354Z" fill="#00350E"/>
<path d="M92.4928 83.811L93.49 83.4381V85.3027L94.6119 83.0651L95.7338 82.8165L95.6092 86.2972L94.6119 86.6702V84.8055L93.49 87.0431L92.3682 87.416L92.4928 83.811Z" fill="#00350E"/>
<path d="M99.7224 84.0596V85.8L98.7252 86.0486V85.3027L96.1074 86.1729L96.2321 82.5679L97.2293 82.3193V84.9298L98.2265 84.5569V81.9464L99.3484 81.5734V84.184L99.7224 84.0596Z" fill="#00350E"/>
<path d="M103.712 82.8165V84.5569L102.714 84.8055V84.0596L100.097 84.9298V81.3248L101.219 81.0762L101.094 83.6867L102.216 83.3138V80.7033L103.213 80.3303V83.0652L103.712 82.8165Z" fill="#00350E"/>
<path d="M106.08 81.5734L105.706 80.7033L105.456 81.6977L106.08 81.5734ZM106.329 82.3193L105.082 82.6922L104.833 83.4381L103.836 83.811L105.207 79.7088L106.329 79.4601L107.7 82.5679L106.578 82.9408L106.329 82.3193Z" fill="#00350E"/>
</g>
<defs>
<clipPath id="clip0_69_293">
<rect width="135" height="122" fill="white"/>
</clipPath>
</defs>
</svg>
