<svg width="235" height="120" viewBox="0 0 235 120" fill="none" xmlns="http://www.w3.org/2000/svg">
<path d="M226.949 11.3338C228.772 11.3338 230.284 9.85382 230.284 8.02327C230.284 6.19272 228.772 4.67375 226.949 4.67375C225.127 4.67375 223.615 6.19272 223.615 8.02327C223.615 9.85382 225.127 11.3338 226.949 11.3338ZM226.949 0C231.37 0 234.899 3.58321 234.899 8.02327C234.899 12.4244 231.37 16.0076 226.949 16.0076C222.568 16.0076 219 12.4244 219 8.02327C219 3.58321 222.568 0 226.949 0Z" fill="#368CCB"/>
<path d="M10.2373 94.6055C12.6027 94.6055 14.5028 92.6581 14.5028 90.3212C14.5028 87.9454 12.6027 85.998 10.2373 85.998C7.87184 85.998 5.97174 87.9454 5.97174 90.3212C5.97174 92.6581 7.87184 94.6055 10.2373 94.6055ZM10.2373 80C15.8988 80 20.4745 84.6348 20.4745 90.3212C20.4745 95.9686 15.8988 100.603 10.2373 100.603C4.57575 100.603 0 95.9686 0 90.3212C0 84.6348 4.57575 80 10.2373 80Z" fill="#368CCB"/>
<path d="M198.707 114.697C199.715 113.568 200.336 112.399 200.724 111.425C201.848 108.543 201.616 104.999 200.142 102L197.04 103.519C198.087 105.7 198.242 108.154 197.466 110.14C196.652 112.243 194.868 113.84 192.154 114.892C185.29 117.579 182.537 114.23 181.063 111.503L178 113.139C181.18 119.137 186.531 120.89 193.433 118.163C195.838 117.229 197.544 115.982 198.707 114.697Z" fill="#F04E3E"/>
</svg>
