<svg width="135" height="122" fill="none" xmlns="http://www.w3.org/2000/svg">
  <g clip-path="url(#a)">
    <path fill-rule="evenodd" clip-rule="evenodd" d="M65.443 1.269C54.349 10.343-3.99 116.505.249 121.602c4.238 4.972 124.28-31.824 133.006-40.153 13.088-12.43-52.729-92.487-67.812-80.18Z" fill="#FEFEFE"/>
    <path d="m49.238 74.488 10.845-3.605-.125 2.735-4.363 7.583 4.238-4.6-.249 6.837-10.845 3.605.125-2.486 4.363-8.08-4.238 3.978.249-5.967Z" fill="#00350E"/>
    <path d="M61.454 70.385 76.91 65.29l-.125 3.978-6.233 9.572 6.108-5.346-.249 8.578-15.457 5.22.125-4.226 6.108-9.323-5.984 4.848.25-8.205Z" fill="#00350E"/>
    <path d="m84.265 71.629.872-5.222.873 4.724-1.745.498Zm-1.247-8.454-5.734 18.647 5.61-1.865.623-4.226 3.116-.995.624 3.73 5.609-1.865-5.734-14.793-4.114 1.367Z" fill="#E8473B"/>
    <path d="m42.63 93.259 4.239-1.368.623-16.782-5.61 1.74.749 16.41Z" fill="#E8473B"/>
    <path d="m90.623 64.667 3.615-1.243-.25 12.804 5.61-1.74-.498-12.68 3.614-1.119v-3.978L90.623 60.69v3.978Z" fill="#E8473B"/>
    <path d="M109.944 66.656c-1.371.497-2.369-.621-2.369-3.356s.748-4.102 2.369-4.724c1.62-.746 2.493.621 2.493 3.108 0 2.61-1.122 4.475-2.493 4.972Zm0-12.43c-3.116 1.118-6.856 3.853-6.856 10.69 0 5.097 3.615 7.085 6.856 6.091 3.241-1.119 7.105-3.854 7.105-10.815 0-5.967-3.864-7.086-7.105-5.967Z" fill="#E8473B"/>
    <path d="m34.528 88.162.125-4.227c.997-.373 2.867-.87 2.867.87 0 1.616-2.119 2.86-2.992 3.357Zm-.124-8.702-5.111 1.616.748 16.41 4.238-1.368.125-3.978c1.246-.373 7.105-2.238 6.98-8.95-.124-4.6-4.113-4.6-6.98-3.73Z" fill="#E8473B"/>
    <path d="m54.723 47.388-1.745-.622 1.121 3.978.624-3.356Z" fill="#00350E"/>
    <path d="m50.484 47.015-1.37 1.74 3.988 2.114-2.617-3.854Z" fill="#00350E"/>
    <path d="M70.18 43.037c-.873-.621-1.746-.746-2.494-.621-1.495.497-2.119 2.237-2.119 2.362l.998.372c0-.124.498-1.367 1.496-1.74.498-.124 1.121.124 1.87.746l.373.248.374-.372s.624-.746.873-1.492l-.998-.249-.373.746Z" fill="#00350E"/>
    <path d="m64.32 40.675-.623-1.989-.997.373.623 1.865.998-.249Z" fill="#00350E"/>
    <path d="m53.6 69.267-8.975-5.346c0-.87-.249-3.232-.249-4.226 0-1.12.623-2.238 2.369-3.854.498-.622.997-1.119 1.37-1.367-.124.124-.249.248-.249.373-1.62 2.734-2.243 4.226-2.243 7.458h1.122c0-2.983.498-4.35 1.994-6.837 1.122-1.989 1.62-2.113 1.745-2.113-.125.248-.374.746-.623 1.367l-.374.622c-.997 2.362-1.745 4.102-1.745 6.961h.997c0-2.735.748-4.226 1.745-6.588l.25-.622c.373-.87.747-1.492.872-1.616 0 .249.125.746-.499 2.486-.623 2.114-.872 3.978-.872 6.34h.997c0-1.616.125-2.983.499-4.475.124.87.374 1.865.374 2.61.249 1.74.374 2.487.997 2.735.125 0 .25 0 .374.125 1.371.248 2.742.621 2.742 2.113 0 1.367-1.745 2.984-2.618 3.854Zm.125-7.086h-.25c-.124-.373-.248-1.119-.248-1.865-.25-1.491-.5-3.232-.998-4.102.624-2.238.499-2.983.25-3.356-.125-.249-.374-.373-.748-.373h-.499c-.25-.125-.498-.249-.873-.249-.373 0-.747.249-1.121.746-.998-.249-1.995.746-3.366 2.113-1.745 1.865-2.493 3.232-2.493 4.6 0 1.243.25 4.475.25 4.6v.248L53.6 70.51l.25-.249c.124-.124 3.365-2.486 3.365-4.848 0-2.486-2.368-2.983-3.49-3.232Z" fill="#00350E"/>
    <path d="M69.307 51.987c-1.246-.124-2.493-.621-3.74-.497.125-.124.25-.373.374-.497.998-1.119.998-1.865.748-2.362-.124-.497-.498-.746-.997-.87-.498-.124-1.122.124-1.371.621l.748.622c.124-.124.374-.249.498-.249 0 .125.125.125.125.249.125.249 0 .622-.498 1.367-.998 1.243-2.494 1.368-3.366.746-.873-.497-.997-1.616-.499-2.983 1.496-3.605 1.87-4.973 1.496-6.216-.25-1.118-1.122-1.864-2.244-1.74-.997 0-2.119.746-2.244 1.989l1.122.124c0-.746.624-.994 1.122-1.119.25 0 .997 0 1.247.995.124.373.124.994-.125 1.616-.25-.249-.748-.373-1.122-.373-.748 0-1.37.249-1.745.87h-.623c0 .497.25.995.873 1.119l.498.124.125-.497c.124-.373.374-.622.748-.622.498 0 .872.373.997.622-.25.746-.623 1.616-1.122 2.735-.748 2.113-.125 3.48.873 4.226-.748.125-1.372.498-1.62.622-.749.124-1.123 0-1.248-.249-.124.249-.249 1.368.624 1.74.748.25 1.496 0 2.368 0-.124 1.741.873 2.611 1.87 2.86h.748c.997 0 1.994-.497 2.368-1.367l-.997-.374c-.25.622-1.246.87-1.87.746-.748-.248-1.121-.87-1.121-1.616.373 0 .623.249.997.498 1.62-2.487 7.23 1.118 7.978-3.481-.25.248-.873.87-1.995.621Z" fill="#00350E"/>
    <path d="M67.811 39.06c1.62-.374 2.618.87 2.618.87l.873-.622c-.125-.124-1.496-1.865-3.74-1.243-1.87.497-2.493 2.237-2.618 3.107h1.122c0-.124.125-1.616 1.745-2.113Z" fill="#00350E"/>
    <path d="M77.659 51.739c-.748 5.22-5.111 9.075-8.976 10.815-2.742 1.119-5.11 1.243-6.482.248-.747-.497-1.121-1.367-1.121-2.113.124-.621.374-1.119.872-1.367l-.374-.995c-.623.249-1.122.87-1.371 1.492-.873-1.616-1.994-3.73-2.368-4.848-.998-2.735-.499-5.967 0-9.075.124-.373.124-.87.249-1.243.125-.87 0-2.113 0-3.605-.125-1.616-.125-3.356 0-4.724.125 0 .125-.124.125-.124.498-3.232 2.119-1.616 4.736-1.989 2.493-.373 5.485-3.108 9.973-.124-1.122 5.842 2.368 5.22 2.991 7.831.748 3.357-3.116 5.594-1.87 7.832l3.242-1.492c-1.496-1.243-1.247-5.22 1.495-5.097 2.867.249 3.49 6.465-1.121 8.578Zm6.108 3.854c-.624-.125-.873-.373-.624-.622.125-.249 1.371-.249 1.371-1.243 0-.995-1.87-.373-2.243-3.48-.374-3.233.374-5.346 1.246-8.703 1.496-6.09-2.991-14.171-11.343-14.917-7.48-.622-15.956 2.735-15.208 12.68 0 .621 0 1.243.125 1.74 0 1.368 0 2.735-.125 3.48 0 .374-.125.747-.125 1.244-.498 3.232-.997 6.464 0 9.572.748 1.864 3.366 6.588 3.49 6.837.25.497.624 1.119 1.247 1.492.748.497 1.87.87 3.117.87 1.246 0 2.742-.373 4.362-1.119 2.493-.994 5.36-2.983 7.355-5.967 1.246 1.616 4.238 2.238 6.482 1.74 1.371-.372 1.745-1.864.374-2.237 1.246-.373 1.246-1.243.499-1.367Z" fill="#00350E"/>
    <path d="m63.822 89.032-.873.373-.124 2.61-.998.373v-2.734l-.997.373.125-.995 2.867-.87v.87Z" fill="#00350E"/>
    <path d="m65.817 89.654-.374-.87-.25.994.624-.124Zm.249.746-1.247.372-.249.622-1.122.373 1.496-3.978 1.122-.373 1.371 3.108-1.122.373-.249-.498Z" fill="#00350E"/>
    <path d="M69.057 89.902c-.374-.124-.499-.248-.748-.497-.124-.249-.124-.497-.124-.87s0-.746.249-.995c.124-.373.374-.621.623-.87a3.79 3.79 0 0 1 .873-.621c.374 0 .623-.125.872 0 .25 0 .499.124.624.372l-.748.87c-.125-.248-.374-.372-.624-.248-.249.124-.498.249-.623.497-.124.125-.124.373-.25.622 0 .248.126.497.25.621.125.125.374.125.623.125.25-.125.499-.373.624-.746l.748.497c-.25.249-.374.497-.624.746-.249.124-.498.373-.872.373-.374.124-.624.248-.873.124Z" fill="#00350E"/>
    <path d="m73.67 87.043-.374-.746-.25.995.623-.249Zm.249.87-1.247.373-.249.622-.997.373 1.371-3.978 1.122-.373 1.371 3.108-1.122.373-.25-.498Z" fill="#00350E"/>
    <path d="M78.406 87.043v-1.616l-.748 1.492-.498.248-.624-1.118v1.616l-.997.373v-3.605l.873-.25.997 1.493 1.122-2.238.872-.249v3.606l-.997.248Z" fill="#00350E"/>
    <path d="m81.897 84.433-.374-.746-.25.994.624-.248Zm.25.87-1.247.373-.125.621-1.122.373 1.371-3.978 1.122-.373 1.372 3.108-1.122.373-.25-.497Z" fill="#00350E"/>
    <path d="M84.763 82.817c0 .373.125.497.374.373l.5-.125v-.87l-.5.124c-.249 0-.374.249-.374.498Zm1.87-1.99v3.606l-.997.372v-.87l-.374.125-.499.994-1.121.373.623-1.243c-.125 0-.374-.124-.499-.373 0-.124-.124-.373-.124-.622 0-.248.124-.497.249-.745.125-.249.25-.498.498-.622.25-.249.5-.373.748-.497l1.496-.497Z" fill="#00350E"/>
    <path d="M62.825 94.875c.125-.125.125-.249.125-.373 0-.125 0-.249-.125-.249 0-.124-.124-.124-.25 0l-.373.124-.125.746.499-.124c.125 0 .25 0 .25-.124Zm.623-1.74c.125.124.374.248.5.372.124.125.124.373.124.622 0 .248 0 .497-.125.746a1.5 1.5 0 0 1-.623.621c-.125.249-.374.373-.748.498l-.499.124v.87l-.997.373v-3.605l1.496-.497c.374-.125.623-.125.873-.125Z" fill="#00350E"/>
    <path d="m64.32 92.761 1.122-.373v1.865l1.122-2.237.997-.373v3.605l-1.122.373v-1.865l-1.121 2.237-.998.25V92.76Z" fill="#00350E"/>
    <path d="M70.928 94.129v-1.616l-.624 1.616-.498.124-.748-.994v1.491l-.998.373v-3.605l.998-.248.997 1.491.997-2.113.873-.373v3.605l-.997.249Z" fill="#00350E"/>
    <path d="M73.171 93.383c-.249-.124-.498-.249-.623-.497-.124-.249-.25-.498-.25-.87 0-.373.126-.746.25-1.12.125-.248.374-.62.623-.87.25-.248.624-.372.998-.497.249-.124.498-.124.748-.124.249.124.498.249.623.373l-.623.87c-.25-.124-.5-.248-.748-.124-.25 0-.374.124-.624.373-.124.248-.124.497-.124.746 0 .248 0 .497.124.621.125.124.374.124.624 0 .249-.124.498-.248.623-.621l.748.497a1.5 1.5 0 0 1-.623.621c-.25.249-.5.373-.873.498-.25.124-.623.124-.873.124Z" fill="#00350E"/>
    <path d="m78.033 90.15.997 1.493-1.246.373-.624-1.12-.25.125-.124 1.243-.997.373v-3.605l1.122-.248v1.243h.25l.747-1.617 1.122-.372-.997 2.113Z" fill="#00350E"/>
    <path d="m81.398 89.405-.374-.87-.25 1.119.624-.249Zm.25.746-1.247.373-.25.746-.997.373 1.371-4.103 1.122-.248L83.02 90.4l-1.122.372-.25-.621Z" fill="#00350E"/>
    <path d="M84.265 87.789c0 .249.125.373.374.249l.499-.125v-.87l-.499.124c-.249.125-.374.249-.374.622Zm1.87-1.989v3.605l-1.122.249.125-.746h-.374l-.499.994-1.121.373.623-1.243c-.125 0-.374-.124-.499-.249-.124-.124-.124-.373-.124-.621 0-.373.124-.622.249-.87.124-.249.25-.373.498-.622l.748-.373 1.496-.497Z" fill="#00350E"/>
    <path d="m91.994 83.935-.125 3.605-.997.373V85.18l-.997.372v2.61l-1.122.374V84.93l3.24-.995Z" fill="#00350E"/>
    <path d="m92.493 83.811.997-.373v1.865l1.122-2.238 1.122-.248-.125 3.48-.997.373v-1.865l-1.122 2.238-1.122.373.125-3.605Z" fill="#00350E"/>
    <path d="M99.722 84.06v1.74l-.997.249v-.746l-2.618.87.125-3.605.997-.249v2.61l.998-.372v-2.61l1.121-.374v2.611l.374-.124Z" fill="#00350E"/>
    <path d="M103.712 82.817v1.74l-.998.248v-.745l-2.617.87v-3.605l1.122-.249-.125 2.61 1.122-.372v-2.61l.997-.374v2.735l.499-.248Z" fill="#00350E"/>
    <path d="m106.08 81.573-.374-.87-.25.995.624-.125Zm.249.746-1.247.373-.249.746-.997.373 1.371-4.102 1.122-.249 1.371 3.108-1.122.373-.249-.622Z" fill="#00350E"/>
  </g>
  <defs>
    <clipPath id="a">
      <path fill="#fff" d="M0 0h135v122H0z"/>
    </clipPath>
  </defs>
</svg>
