<?xml version="1.0" encoding="utf-8"?>
<!-- Generator: Adobe Illustrator 24.1.2, SVG Export Plug-In . SVG Version: 6.00 Build 0)  -->
<svg version="1.1" id="Слой_1" xmlns="http://www.w3.org/2000/svg" xmlns:xlink="http://www.w3.org/1999/xlink" x="0px" y="0px"
	 viewBox="0 0 10 453" style="enable-background:new 0 0 10 453;" xml:space="preserve">
<style type="text/css">
	.st0{fill:none;stroke:#E8473B;stroke-width:1.888;}
</style>
<path class="st0" d="M8.2,453c0-6.3-7.2-6.3-7.2-12.6c0-6.3,7.2-6.3,7.2-12.7c0-6.3-7.2-6.3-7.2-12.6c0-6.3,7.2-6.3,7.2-12.6
	c0-6.3-7.2-6.3-7.2-12.6c0-6.3,7.2-6.3,7.2-12.6C8.2,371,1,371,1,364.7c0-6.3,7.2-6.3,7.2-12.6c0-6.3-7.2-6.3-7.2-12.6
	c0-6.3,7.2-6.3,7.2-12.6S1,320.6,1,314.3c0-6.3,7.2-6.3,7.2-12.6c0-6.3-7.2-6.3-7.2-12.7c0-6.3,7.2-6.3,7.2-12.6
	c0-6.3-7.2-6.3-7.2-12.6c0-6.3,7.2-6.3,7.2-12.6c0-6.3-7.2-6.3-7.2-12.7c0-6.3,7.2-6.3,7.2-12.6l0,1c0-6.3-7.2-6.3-7.2-12.6
	c0-6.3,7.2-6.3,7.2-12.7c0-6.3-7.2-6.3-7.2-12.6c0-6.3,7.2-6.3,7.2-12.6c0-6.3-7.2-6.3-7.2-12.6c0-6.3,7.2-6.3,7.2-12.6
	C8.2,145,1,145,1,138.7c0-6.3,7.2-6.3,7.2-12.6c0-6.3-7.2-6.3-7.2-12.6c0-6.3,7.2-6.3,7.2-12.6S1,94.6,1,88.3C1,82,8.2,82,8.2,75.7
	c0-6.3-7.2-6.3-7.2-12.7c0-6.3,7.2-6.3,7.2-12.6S1,44.1,1,37.9c0-6.3,7.2-6.3,7.2-12.6c0-6.3-7.2-6.3-7.2-12.7C1,6.3,8.2,6.3,8.2,0"
	/>
</svg>
