<svg width="56" height="56" viewBox="0 0 56 56" fill="none" xmlns="http://www.w3.org/2000/svg">
<path d="M28 56C43.464 56 56 43.464 56 28C56 12.536 43.464 0 28 0C12.536 0 0 12.536 0 28C0 43.464 12.536 56 28 56Z" fill="#00350E"/>
<path fill-rule="evenodd" clip-rule="evenodd" d="M52.7407 41.0744C48.3633 49.3471 39.9749 55.1515 30.1787 55.9036C30.1787 55.8072 30.198 55.7107 30.198 55.6143C31.2586 47.5923 37.0823 42.5978 43.1567 49.2507C41.5754 46.5317 40.4762 37.989 52.1815 40.9394C52.3743 40.978 52.5671 41.0358 52.7407 41.0744Z" fill="#2B8BCB"/>
<path fill-rule="evenodd" clip-rule="evenodd" d="M4.43555 12.8622C5.97825 10.4518 7.90662 8.29199 10.0857 6.47932C14.1546 7.67491 17.9727 7.8099 20.9232 2.08263C21.1738 1.61982 21.4052 1.17629 21.6559 0.713481C22.5044 0.520644 23.3722 0.366374 24.24 0.250671C23.2758 1.09916 22.3887 2.3526 21.5788 4.18456C19.4576 9.02478 16.9314 14.0578 9.02508 14.0771C7.00029 14.0771 5.49615 13.6143 4.43555 12.8622Z" fill="#F04E3E"/>
</svg>
