<svg width="56" height="56" viewBox="0 0 56 56" fill="none" xmlns="http://www.w3.org/2000/svg">
<g clip-path="url(#clip0_69_281)">
<path d="M28 56C43.464 56 56 43.464 56 28C56 12.536 43.464 0 28 0C12.536 0 0 12.536 0 28C0 43.464 12.536 56 28 56Z" fill="#00350E"/>
<path fill-rule="evenodd" clip-rule="evenodd" d="M52.7407 41.0744C48.3633 49.3471 39.9749 55.1515 30.1787 55.9036C30.1787 55.8072 30.198 55.7107 30.198 55.6143C31.2586 47.5923 37.0823 42.5978 43.1567 49.2507C41.5754 46.5317 40.4762 37.989 52.1815 40.9394C52.3743 40.978 52.5671 41.0358 52.7407 41.0744Z" fill="#2B8BCB"/>
<path fill-rule="evenodd" clip-rule="evenodd" d="M4.43555 12.8622C5.97825 10.4518 7.90662 8.29199 10.0857 6.47932C14.1546 7.67491 17.9727 7.8099 20.9232 2.08263C21.1738 1.61982 21.4052 1.17629 21.6559 0.713481C22.5044 0.520644 23.3722 0.366374 24.24 0.250671C23.2758 1.09916 22.3887 2.3526 21.5788 4.18456C19.4576 9.02478 16.9314 14.0578 9.02508 14.0771C7.00029 14.0771 5.49615 13.6143 4.43555 12.8622Z" fill="#FFC20E"/>
<path fill-rule="evenodd" clip-rule="evenodd" d="M23.507 22.0413C23.507 24.0083 23.912 24.6061 24.3169 26.2259C23.4492 26.9394 15.2343 35.3085 13.7687 36.7548C12.1875 38.3361 12.496 37.5454 12.496 40.6501C12.496 44.3333 13.8073 44.0441 17.1819 44.0441C17.9726 44.0441 17.9147 43.0413 18.8789 43.022C19.5924 43.022 19.4189 43.157 19.8817 42.6749C20.7494 41.7879 20.4795 42.0578 20.518 40.0523L22.1764 40.0331C22.7935 40.0331 23.4106 39.146 23.4299 39.0881C23.6806 38.6253 23.4877 37.6419 23.5263 37.0441C25.8789 36.9862 26.8045 37.3912 27.9616 35.7328C28.5594 34.8843 28.5208 34.2479 28.5401 33.0138C29.0607 33.0138 30.3913 33.0909 30.6613 32.8981C31.1241 32.5895 30.8348 32.3581 31.6255 32.5895C34.1131 33.3416 36.62 33.0909 38.799 32.146C42.8679 30.5069 45.7412 26.5344 45.7412 21.887C45.7412 15.7741 40.8045 10.8375 34.6916 10.8375C31.8954 10.8375 29.35 11.8595 27.4023 13.5758C25.0304 15.5813 23.507 18.5895 23.507 22.0413ZM14.1158 40.6308L28.0194 26.708L28.9643 27.6529L15.0414 41.5565L14.1158 40.6308ZM38.5483 14.9642C40.2067 14.9642 41.5373 16.314 41.5373 17.9724C41.5373 19.6309 40.2067 20.9807 38.5483 20.9807C36.8706 20.9807 35.5401 19.6309 35.5401 17.9724C35.5401 16.314 36.8706 14.9642 38.5483 14.9642Z" fill="#FEFEFE"/>
</g>
<defs>
<clipPath id="clip0_69_281">
<rect width="56" height="56" fill="white"/>
</clipPath>
</defs>
</svg>
