<svg width="56" height="56" viewBox="0 0 56 56" fill="none" xmlns="http://www.w3.org/2000/svg">
<path d="M28 56C43.464 56 56 43.464 56 28C56 12.536 43.464 0 28 0C12.536 0 0 12.536 0 28C0 43.464 12.536 56 28 56Z" fill="#00350E"/>
<path fill-rule="evenodd" clip-rule="evenodd" d="M55.4318 33.6337C54.9679 35.9047 54.2294 38.0742 53.2531 40.1075C51.4044 40.7491 49.9458 42.2377 49.2511 45.4804C49.1796 45.8196 49.1057 46.1543 49.0272 46.4866C45.5238 50.4678 40.9102 53.4474 35.6665 54.936C33.8617 52.8635 35.0665 49.5193 38.3299 49.6947C42.5304 49.9231 47.2455 50.9848 48.2887 43.9548C48.898 39.8328 49.7658 35.4846 55.4318 33.6337Z" fill="#FFC20E"/>
<path fill-rule="evenodd" clip-rule="evenodd" d="M6.56152 9.99111C7.21467 9.21333 7.90936 8.47018 8.64329 7.76856C8.93409 7.91627 9.26182 7.99935 9.61032 7.99935C10.7943 7.99935 11.7521 7.03925 11.7521 5.85527C11.7521 5.64756 11.7221 5.44677 11.6667 5.25521C12.4906 4.66437 13.3492 4.11508 14.2354 3.61426C14.5632 4.29049 14.7501 5.05211 14.7501 5.85527C14.7501 8.69405 12.4491 10.9951 9.61032 10.9951C8.46789 10.9951 7.41316 10.6212 6.56152 9.99111Z" fill="#2B8BCB"/>
<path fill-rule="evenodd" clip-rule="evenodd" d="M6.12991 45.4827C2.2941 40.6914 0 34.6146 0 28C0 26.6014 0.103858 25.2259 0.302341 23.8826C1.15628 24.3765 2.07946 24.9974 3.07418 25.7498C10.8173 31.6212 4.89285 35.2216 2.3818 35.5955C8.88559 36.0201 9.37719 41.0607 6.12991 45.4827Z" fill="#F04E3E"/>
</svg>
