<svg width="40" height="40" viewBox="0 0 40 40" fill="none" xmlns="http://www.w3.org/2000/svg">
<path d="M19.8333 39.6667C30.787 39.6667 39.6667 30.787 39.6667 19.8333C39.6667 8.87969 30.787 0 19.8333 0C8.87969 0 0 8.87969 0 19.8333C0 30.787 8.87969 39.6667 19.8333 39.6667Z" fill="#00350E"/>
<path fill-rule="evenodd" clip-rule="evenodd" d="M39.2649 23.8237C38.9363 25.4324 38.4132 26.9691 37.7216 28.4093C36.4122 28.8638 35.379 29.9182 34.8869 32.2151C34.8362 32.4554 34.7839 32.6925 34.7283 32.9279C32.2467 35.7479 28.9788 37.8584 25.2645 38.9129C23.9861 37.4448 24.8395 35.076 27.1511 35.2003C30.1264 35.3621 33.4663 36.1141 34.2052 31.1345C34.6368 28.2148 35.2515 25.1348 39.2649 23.8237Z" fill="#FFC20E"/>
<path fill-rule="evenodd" clip-rule="evenodd" d="M4.64746 7.077C5.11011 6.52607 5.60218 5.99967 6.12205 5.50269C6.32803 5.60732 6.56017 5.66617 6.80703 5.66617C7.64568 5.66617 8.32412 4.98609 8.32412 4.14744C8.32412 4.00031 8.30286 3.85809 8.26363 3.7224C8.84725 3.30389 9.45539 2.91481 10.0832 2.56006C10.3153 3.03905 10.4477 3.57854 10.4477 4.14744C10.4477 6.15824 8.81782 7.78813 6.80703 7.78813C5.9978 7.78813 5.2507 7.5233 4.64746 7.077Z" fill="#2B8BCB"/>
<path fill-rule="evenodd" clip-rule="evenodd" d="M4.34202 32.2168C1.62499 28.823 0 24.5185 0 19.8332C0 18.8425 0.0735658 17.8682 0.214158 16.9167C0.819032 17.2666 1.47295 17.7064 2.17755 18.2393C7.66229 22.3982 3.46577 24.9485 1.68711 25.2133C6.29396 25.5141 6.64217 29.0845 4.34202 32.2168Z" fill="#F04E3E"/>
</svg>
