<svg width="220" height="49" viewBox="0 0 220 49" fill="none" xmlns="http://www.w3.org/2000/svg">
<path d="M58.9158 0.210011L85.3709 0.165771L83.1368 6.22656L68.0954 19.609L80.759 12.6634L75.218 27.7158L48.7407 27.738L50.7647 22.2965L66.2927 7.40997L54.0716 13.327L58.9158 0.210011Z" fill="#00350E"/>
<path d="M88.9101 0.154616L126.735 0.0882568L123.583 8.77023L102.834 25.5812L120.154 18.0937L113.242 36.8622L75.3618 36.9618L78.7461 27.7379L99.0741 11.7121L82.3516 17.961L88.9101 0.154616Z" fill="#00350E"/>
<path d="M138.137 19.6423L143.866 8.67091L142.351 19.6312L138.137 19.6423ZM141.61 0.0221197L115.52 36.9177L129.113 36.9067L133.669 28.2026L141.168 28.1915L139.973 36.8846L153.621 36.8624L151.829 0L141.61 0.0221197Z" fill="#F04E3E"/>
<path d="M157.326 8.77025L166.307 8.75919L156.375 36.9618H170.012L178.174 8.73707L186.823 8.72601L189.687 0.0219116L160.191 0.066151L157.326 8.77025Z" fill="#F04E3E"/>
<path d="M198.524 27.3841C195.228 27.4173 193.647 24.3316 195.626 18.3039C197.617 12.2874 200.415 9.75469 204.485 9.43396C208.578 9.12428 209.307 12.7077 207.505 18.2929C205.713 23.8781 201.809 27.3509 198.524 27.3841ZM207.615 0.0109707C199.708 0.0883896 189.444 3.46164 184.544 18.3261C180.828 29.6071 187.531 36.973 195.438 36.8955C203.346 36.8071 213.643 33.7545 218.742 18.2708C223.055 5.2091 215.523 -0.0664482 207.615 0.0109707Z" fill="#F04E3E"/>
<path d="M30.835 36.9506L41.0653 36.9396L54.6247 0.209839H41.0543L30.835 36.9506Z" fill="#F04E3E"/>
<path d="M16.6561 19.6753L20.0515 10.4513C22.4404 10.2965 26.8865 10.5066 25.5814 14.4661C24.3869 18.1048 18.8791 19.3213 16.6561 19.6753ZM22.5178 0.353711L10.2304 0.342651L0 37.0834L10.2414 37.0613L13.4488 28.3572C16.3133 28.5452 30.7795 28.7001 35.2698 13.714C38.3334 3.49471 29.6293 0.43113 22.5178 0.353711Z" fill="#F04E3E"/>
<path d="M29.242 42.8013H30.1268C30.4696 42.8013 30.6908 42.8676 30.8125 43.0114C30.9342 43.1552 30.9563 43.3543 30.8678 43.6087C30.7793 43.8741 30.6245 44.0732 30.4143 44.2059C30.2042 44.3497 29.9277 44.4271 29.5959 44.4271H28.7001L29.242 42.8013ZM28.125 46.1856H28.7885L29.4521 47.922H32.0733L31.2549 45.7874C31.7747 45.5662 32.206 45.2676 32.5599 44.9027C32.9249 44.5377 33.1793 44.0953 33.3452 43.6087C33.5222 43.0778 33.5332 42.6133 33.3894 42.2151C33.2567 41.828 32.9692 41.5294 32.5378 41.3082C32.1065 41.1091 31.5535 40.9985 30.8789 40.9985L27.3729 41.0096L25.0835 47.9331H27.5498L28.125 46.1856Z" fill="#00350E"/>
<path d="M39.6602 45.3563C39.4279 45.6106 39.1625 45.8208 38.8749 45.9645C38.5763 46.1083 38.2777 46.1747 37.968 46.1747C37.6694 46.1747 37.415 46.1083 37.2159 45.9645C37.0058 45.8208 36.8841 45.6217 36.8288 45.3673C36.7625 45.1019 36.7957 44.7922 36.9063 44.4493C37.0169 44.0954 37.1938 43.7968 37.4261 43.5314C37.6583 43.2659 37.9238 43.0669 38.2113 42.9231C38.5099 42.7793 38.8086 42.7129 39.1182 42.7129C39.4168 42.7129 39.6712 42.7793 39.8703 42.9231C40.0694 43.0669 40.2021 43.2659 40.2574 43.5203C40.3238 43.7858 40.2906 44.0844 40.18 44.4383C40.0583 44.7922 39.8924 45.0908 39.6602 45.3563ZM41.5182 46.2963C42.0491 45.7433 42.4362 45.124 42.6574 44.4383C42.8896 43.7415 42.9118 43.1222 42.7459 42.5692C42.5689 42.0162 42.226 41.5848 41.6952 41.2862C41.1754 40.9766 40.5228 40.8217 39.7376 40.8217C38.9523 40.8217 38.1892 40.9766 37.4703 41.2973C36.7404 41.607 36.11 42.0383 35.568 42.5913C35.0371 43.1443 34.6611 43.7636 34.4289 44.4493C34.1966 45.1461 34.1745 45.7655 34.3404 46.3185C34.5173 46.8714 34.8602 47.2917 35.3911 47.6014C35.9109 47.9111 36.5634 48.0659 37.3487 48.0659C38.1339 48.0659 38.897 47.9111 39.6159 47.5903C40.3459 47.2807 40.9763 46.8493 41.5182 46.2963Z" fill="#00350E"/>
<path d="M48.2649 47.2585L50.687 44.7258L49.6585 47.8779L51.9036 47.8668L54.1709 40.9434H52.1469L48.6188 44.6484L47.4576 40.9655H45.4336L43.1553 47.8889H45.3894L46.3958 44.8364L47.1811 47.2585H48.2649Z" fill="#00350E"/>
<path d="M58.9266 43.2215L59.0704 44.969H57.6548L58.9266 43.2215ZM56.416 46.6501H59.1921L59.2805 47.8556L61.8243 47.8445L60.9174 40.9321H58.4953L53.0317 47.8666L55.5313 47.8556L56.416 46.6501Z" fill="#00350E"/>
<path d="M66.3919 44.6925L68.1283 47.8335L70.1523 47.8224L72.4306 40.899H70.0306L69.0021 44.051L67.2657 40.91L65.2417 40.9211L62.9634 47.8446L65.3523 47.8335L66.3919 44.6925Z" fill="#00350E"/>
<path d="M75.9146 43.4318C76.1469 43.1775 76.4123 42.9784 76.6999 42.8346C76.9985 42.6908 77.2971 42.6134 77.5957 42.6134C77.9054 42.6134 78.1598 42.6908 78.3588 42.8235C78.5579 42.9673 78.6906 43.1664 78.757 43.4318C78.8123 43.6862 78.7791 43.9959 78.6685 44.3387C78.5468 44.6927 78.381 45.0023 78.1487 45.2567C77.9164 45.5221 77.651 45.7212 77.3634 45.865C77.0648 46.0088 76.7662 46.0751 76.4565 46.0751C76.1469 46.0751 75.9035 46.0088 75.7045 45.865C75.5054 45.7323 75.3727 45.5221 75.3063 45.2678C75.251 45.0023 75.2731 44.7037 75.3948 44.3498C75.5054 44.0069 75.6824 43.6973 75.9146 43.4318ZM73.8796 47.5129C74.3994 47.8226 75.0519 47.9664 75.8372 47.9664C76.6224 47.9664 77.3745 47.8115 78.1045 47.5018C78.8344 47.1922 79.4648 46.7498 80.0067 46.2078C80.5376 45.6549 80.9247 45.0244 81.1459 44.3387C81.3782 43.642 81.4113 43.0226 81.2344 42.4696C81.0574 41.9277 80.7146 41.4964 80.1837 41.1867C79.6639 40.877 79.0114 40.7222 78.2261 40.7222C77.4409 40.7332 76.6777 40.8881 75.9588 41.1977C75.2289 41.5074 74.5985 41.9388 74.0566 42.4917C73.5257 43.0447 73.1386 43.6641 72.9174 44.3609C72.6851 45.0466 72.652 45.6659 72.8289 46.2189C73.0059 46.7719 73.3598 47.2032 73.8796 47.5129Z" fill="#00350E"/>
<path d="M90.9228 46.4622C90.6463 46.4622 90.4362 46.4069 90.3145 46.2963C90.1818 46.1857 90.1486 46.042 90.2039 45.8761C90.2924 45.6106 90.5025 45.4005 90.8343 45.2125L91.8076 46.2963C91.4979 46.4069 91.2104 46.4622 90.9228 46.4622ZM92.0841 42.4807C92.1947 42.4033 92.3274 42.3701 92.4823 42.3701C92.626 42.3701 92.7256 42.4033 92.7698 42.4696C92.8251 42.536 92.8472 42.6134 92.814 42.724C92.7477 42.9231 92.4823 43.1222 92.0399 43.3212C91.9403 43.1885 91.874 43.089 91.8518 43.0116C91.8297 42.9342 91.8297 42.8567 91.8518 42.7683C91.8961 42.6466 91.9624 42.5471 92.0841 42.4807ZM94.1191 44.0844C93.9422 44.4162 93.7431 44.7148 93.544 44.9802L92.9799 44.3609C93.4776 44.1286 93.8869 43.8742 94.1744 43.6088C94.473 43.3323 94.6721 43.0226 94.7938 42.6687C94.9044 42.3148 94.9044 42.0162 94.7938 41.7397C94.6832 41.4743 94.473 41.2752 94.1523 41.1314C93.8316 40.9876 93.4334 40.9213 92.9578 40.9213C92.427 40.9213 91.9514 41.0097 91.4979 41.1646C91.0445 41.3194 90.6684 41.5406 90.3588 41.8282C90.0491 42.1047 89.8279 42.4254 89.7062 42.8014C89.5514 43.266 89.6178 43.7083 89.8942 44.1286C89.3191 44.383 88.8767 44.6706 88.5449 44.9913C88.2021 45.312 87.9588 45.6881 87.815 46.1304C87.6933 46.5065 87.7155 46.8493 87.8814 47.159C88.0362 47.4576 88.3238 47.6899 88.733 47.8668C89.1311 48.0438 89.6288 48.1323 90.2039 48.1212C91.1108 48.1212 91.9846 47.9 92.8583 47.4576L93.4223 48.088L95.1256 46.7277L94.6279 46.1747C95.1034 45.7102 95.5016 45.1904 95.8334 44.6153L94.1191 44.0844Z" fill="#00350E"/>
<path d="M106.263 44.1505L104.526 41.0095L102.502 41.0205L100.224 47.944L102.624 47.9329L103.653 44.7919L105.4 47.9329L107.413 47.9219L109.691 40.9984L107.302 41.0095L106.263 44.1505Z" fill="#00350E"/>
<path d="M112.633 45.2455L115.719 45.2345L116.272 43.5534L113.186 43.5644L113.452 42.746H116.969L117.555 40.9764L111.616 40.9986L109.337 47.922L115.398 47.8999L115.984 46.1414L112.335 46.1524L112.633 45.2455Z" fill="#00350E"/>
<path d="M120.917 45.0022L122.189 43.2658L122.322 45.0022H120.917ZM121.758 40.9654L116.294 47.8999H118.793L119.678 46.6833H122.454L122.543 47.8889L125.087 47.8778L124.18 40.9654H121.758Z" fill="#00350E"/>
<path d="M131.546 44.1506C131.336 44.2944 131.059 44.3718 130.727 44.3718H129.82L130.362 42.746H131.258C131.59 42.746 131.822 42.8124 131.933 42.9561C132.054 43.0999 132.077 43.299 131.988 43.5534C131.911 43.8077 131.756 44.0068 131.546 44.1506ZM133.669 41.2529C133.238 41.0428 132.685 40.9432 132.01 40.9432L128.493 40.9543L126.215 47.8778L128.67 47.8667L129.234 46.1745L130.285 46.1635C130.971 46.1635 131.579 46.0639 132.154 45.8427C132.729 45.6326 133.205 45.334 133.614 44.9358C134.012 44.5377 134.3 44.0732 134.477 43.5534C134.654 43.0225 134.665 42.558 134.521 42.1709C134.388 41.7727 134.101 41.463 133.669 41.2529Z" fill="#00350E"/>
<path d="M140.77 45.3008C140.537 45.5551 140.283 45.7653 139.984 45.898C139.697 46.0418 139.387 46.1192 139.088 46.1192C138.779 46.1192 138.524 46.0418 138.325 45.9091C138.126 45.7653 137.994 45.5662 137.938 45.3008C137.883 45.0464 137.905 44.7367 138.016 44.3939C138.137 44.0399 138.314 43.7413 138.535 43.4759C138.768 43.2105 139.033 43.0114 139.321 42.8676C139.619 42.7238 139.918 42.6575 140.228 42.6575C140.526 42.6575 140.792 42.7238 140.991 42.8676C141.19 43.0114 141.311 43.2105 141.378 43.4648C141.433 43.7303 141.411 44.0289 141.289 44.3828C141.179 44.7257 141.002 45.0353 140.77 45.3008ZM142.816 41.2197C142.285 40.9211 141.632 40.7662 140.847 40.7662C140.062 40.7662 139.31 40.9211 138.58 41.2307C137.85 41.5515 137.219 41.9828 136.677 42.5247C136.147 43.0777 135.759 43.6971 135.538 44.3939C135.306 45.0906 135.284 45.71 135.45 46.263C135.627 46.8049 135.981 47.2362 136.5 47.5459C137.02 47.8556 137.673 48.0104 138.458 48.0104C139.254 48.0104 140.006 47.8445 140.736 47.5349C141.455 47.2252 142.097 46.7938 142.628 46.2409C143.158 45.6879 143.546 45.0685 143.767 44.3717C143.999 43.686 144.032 43.0556 143.855 42.5137C143.689 41.9607 143.335 41.5294 142.816 41.2197Z" fill="#00350E"/>
<path d="M148.998 40.8989L146.543 40.91L144.253 47.8334L150.016 47.8224L150.613 46.0086L147.317 46.0196L148.998 40.8989Z" fill="#00350E"/>
<path d="M151.42 47.8225L153.875 47.8114L156.154 40.8879H153.698L151.42 47.8225Z" fill="#00350E"/>
<path d="M156.928 42.6906H159.062L157.381 47.8002H159.836L161.529 42.6795H163.663L164.26 40.8657L157.525 40.8768L156.928 42.6906Z" fill="#00350E"/>
<path d="M166.804 44.8915L168.087 43.1441L168.22 44.8915H166.804ZM167.656 40.8547L162.192 47.7892H164.692L165.577 46.5726H168.342L168.441 47.7781L170.985 47.7671L170.078 40.8547H167.656Z" fill="#00350E"/>
<path d="M178.152 43.9736L176.416 40.8327L174.392 40.8437L172.113 47.7672L174.513 47.7561L175.542 44.6151L177.278 47.7561L179.302 47.7451L181.592 40.8216L179.192 40.8327L178.152 43.9736Z" fill="#00350E"/>
<path d="M187.31 45.1793C187.077 45.4447 186.823 45.6438 186.524 45.7876C186.226 45.9314 185.938 45.9977 185.628 45.9977C185.319 46.0088 185.064 45.9314 184.865 45.7876C184.666 45.6549 184.534 45.4447 184.478 45.1904C184.412 44.9249 184.445 44.6263 184.567 44.2724C184.677 43.9295 184.843 43.6199 185.075 43.3544C185.308 43.1001 185.573 42.901 185.872 42.7572C186.159 42.6134 186.458 42.536 186.768 42.536C187.077 42.536 187.321 42.6024 187.52 42.7461C187.73 42.8899 187.851 43.089 187.918 43.3544C187.973 43.6088 187.951 43.9185 187.84 44.2724C187.719 44.6152 187.542 44.9249 187.31 45.1793ZM190.395 42.3922C190.218 41.8503 189.875 41.419 189.356 41.1093C188.825 40.7996 188.172 40.6448 187.387 40.6558C186.602 40.6558 185.85 40.8107 185.12 41.1203C184.39 41.43 183.759 41.8613 183.228 42.4143C182.687 42.9673 182.299 43.5867 182.078 44.2835C181.846 44.9692 181.824 45.5996 182.001 46.1415C182.167 46.6945 182.51 47.1258 183.04 47.4355C183.56 47.7452 184.213 47.889 185.009 47.889C185.783 47.889 186.535 47.7341 187.276 47.4244C187.995 47.1037 188.637 46.6834 189.168 46.1304C189.698 45.5775 190.086 44.9581 190.318 44.2613C190.539 43.5646 190.561 42.9452 190.395 42.3922Z" fill="#00350E"/>
</svg>
